<svg xmlns="http://www.w3.org/2000/svg" xmlns:xlink="http://www.w3.org/1999/xlink" viewBox="0 0 24 24" version="1.1" x="0px" y="0px">
  <g>
    <path d="M7.02746284,12 C7.25802059,14.0857755 8.91403935,15.7419744 11,15.972539 L11,14.5 C11,14.2238576 11.2238576,14 11.5,14 C11.7761424,14 12,14.2238576 12,14.5 L12,15.972539 C14.0859606,15.7419744 15.7419794,14.0857755 15.9725372,12 L14.5,12 C14.2238576,12 14,11.7761424 14,11.5 C14,11.2238576 14.2238576,11 14.5,11 L15.9725372,11 C15.7419794,8.91422453 14.0859606,7.25802563 12,7.02746098 L12,8.5 C12,8.77614237 11.7761424,9 11.5,9 C11.2238576,9 11,8.77614237 11,8.5 L11,7.02746098 C8.91403935,7.25802563 7.25802059,8.91422453 7.02746284,11 L8.5,11 C8.77614237,11 9,11.2238576 9,11.5 C9,11.7761424 8.77614237,12 8.5,12 L7.02746284,12 L7.02746284,12 Z M6.02242061,12 L4.5,12 C4.22385763,12 4,11.7761424 4,11.5 C4,11.2238576 4.22385763,11 4.5,11 L6.02242061,11 C6.26017976,8.36149101 8.36124606,6.26018516 11,6.02241903 L11,4.5 C11,4.22385763 11.2238576,4 11.5,4 C11.7761424,4 12,4.22385763 12,4.5 L12,6.02241903 C14.6387539,6.26018516 16.7398202,8.36149101 16.9775794,11 L18.5,11 C18.7761424,11 19,11.2238576 19,11.5 C19,11.7761424 18.7761424,12 18.5,12 L16.9775794,12 C16.7398202,14.638509 14.6387539,16.7398148 12,16.977581 L12,18.5 C12,18.7761424 11.7761424,19 11.5,19 C11.2238576,19 11,18.7761424 11,18.5 L11,16.977581 C8.36124606,16.7398148 6.26017976,14.638509 6.02242061,12 L6.02242061,12 Z M12,11.5 C12,11.2237195 11.776435,11 11.5,11 C11.223565,11 11,11.2237195 11,11.5 C11,11.7762805 11.223565,12 11.5,12 C11.776435,12 12,11.7762805 12,11.5 Z M13,11.5 C13,12.3284106 12.3288744,13 11.5,13 C10.6711256,13 10,12.3284106 10,11.5 C10,10.6715894 10.6711256,10 11.5,10 C12.3288744,10 13,10.6715894 13,11.5 Z" fill-rule="nonzero"/>
  </g>
</svg>