<?xml version="1.0" encoding="UTF-8" standalone="no"?>
<svg
   xmlns="http://www.w3.org/2000/svg"
   version="1.1"
   viewBox="0 0 56 88">
  <g transform="translate(-22,-958.36218)">
    <path
       d="M 50,6 C 34.561872,6 22,18.52373 22,33.9375 c 0,5.55791 1.638665,10.74059 4.4375,15.09375 L 41.75,72.84375 C 38.561135,73.526318 35.761343,74.574 33.5625,76 30.941159,77.7 29,80.107 29,83 c 0,3.6262 2.92474,6.35915 6.71875,8.15625 C 39.51276,92.95345 44.497299,94 50,94 55.502707,94 60.487244,92.95345 64.28125,91.15625 68.075256,89.35915 71,86.6262 71,83 71,81.4352 70.402948,79.94535 69.46875,78.71875 a 2.0063376,2.0063376 0 1 0 -3.1875,2.4375 C 66.799978,81.83745 67,82.4196 67,83 67,84.3443 65.676392,86.07105 62.59375,87.53125 59.511108,88.99155 54.990703,90 50,90 45.009291,90 40.488888,88.99145 37.40625,87.53125 34.323612,86.07145 33,84.3444 33,83 c 0,-1.0731 0.784866,-2.3505 2.75,-3.625 1.930196,-1.251841 4.849164,-2.332516 8.3125,-2.90625 l 4.25,6.59375 a 2.0002,2.0002 0 0 0 3.375,0 L 73.5625,49.03125 C 76.361308,44.67818 78,39.49544 78,33.9375 78,18.52373 65.438128,6 50,6 Z m 0,4 c 13.280692,0 24,10.68981 24,23.9375 0,4.77188 -1.410784,9.202 -3.8125,12.9375 L 50,78.28125 29.8125,46.875 C 27.410755,43.13941 26,38.70941 26,33.9375 26,20.68981 36.719308,10 50,10 Z m 0,12 c -6.60373,0 -12,5.3963 -12,12 0,6.6037 5.39627,12 12,12 6.60373,0 12,-5.3963 12,-12 0,-6.6037 -5.39627,-12 -12,-12 z m 0,4 c 4.44197,0 8,3.558 8,8 0,4.442 -3.55803,8 -8,8 -4.44197,0 -8,-3.558 -8,-8 0,-4.442 3.55803,-8 8,-8 z m 12,48 c -1.104569,0 -2,0.895431 -2,2 0,1.104569 0.895431,2 2,2 1.104569,0 2,-0.895431 2,-2 0,-1.104569 -0.895431,-2 -2,-2 z"
       transform="translate(0,952.36218)"/>
  </g>
</svg>
