<svg xmlns="http://www.w3.org/2000/svg" viewBox="0 0 100 100" x="0px" y="0px">
  <g transform='rotate(-45 50 50)'>
  <path fill="#cacaca" d="M52.99915,55.752a.37308.37308,0,0,0-.42127-.07141,6.24414,6.24414,0,0,1-8.27417-8.26306.373.373,0,0,0-.072-.42114l-.69922-.69843a.382.382,0,0,0-.40308-.0877l-8.18994,3.04712a2.20849,2.20849,0,0,0-1.28259,1.25543l-9.47351,23.8891a1.08978,1.08978,0,0,0,1.41479,1.41473l23.8877-9.473a2.20819,2.20819,0,0,0,1.25623-1.28485l3.04309-8.207a.38219.38219,0,0,0-.08826-.403Zm-5.49476,7.39722L29.8501,70.14984l7.00207-17.65552,3.27344-1.2185a9.95658,9.95658,0,0,0,8.59607,8.58856Z"/>
  <path fill="#ff4500" d="M74.40186,24.18335,50.51294,33.65692a2.208,2.208,0,0,0-1.25562,1.28259l-3.04675,8.19025a.38173.38173,0,0,0,.08777.40308l.698.699a.37329.37329,0,0,0,.42114.072A6.24415,6.24415,0,0,1,55.68042,52.578a.37333.37333,0,0,0,.07153.42127l.69654.69757a.38216.38216,0,0,0,.40307.08819l8.20728-3.0429a2.20825,2.20825,0,0,0,1.28479-1.25635l9.473-23.8877A1.08978,1.08978,0,0,0,74.40186,24.18335Z"/>
  <circle fill="#ff4500" cx="49.99396" cy="49.99399" r="2.74999"/>
  </g>
</svg>